<svg width="200" height="200" viewBox="0 0 200 200" xmlns="http://www.w3.org/2000/svg">
  <rect width="200" height="200" fill="#111118"/>
  <!-- Background glow -->
  <circle cx="100" cy="100" r="80" fill="#7c6af720"/>
  <!-- GitHub mark (simplified) -->
  <path d="M100 45C69.6 45 45 69.6 45 100c0 24.3 15.7 44.9 37.5 52.2 2.7.5 3.7-1.2 3.7-2.7 0-1.3 0-4.8-.1-9.4-15.2 3.3-18.4-7.3-18.4-7.3-2.5-6.3-6.1-8-6.1-8-5-3.4.4-3.3.4-3.3 5.5.4 8.4 5.6 8.4 5.6 4.9 8.4 12.8 5.9 15.9 4.5.5-3.5 1.9-5.9 3.5-7.3-12.1-1.4-24.8-6.1-24.8-27 0-6 2.1-10.8 5.6-14.7-.6-1.4-2.4-6.9.5-14.4 0 0 4.6-1.5 15 5.6 4.3-1.2 8.9-1.8 13.5-1.8 4.6 0 9.2.6 13.5 1.8 10.4-7 15-5.6 15-5.6 3 7.5 1.1 13 .5 14.4 3.5 3.8 5.6 8.7 5.6 14.7 0 21-12.7 25.6-24.9 26.9 2 1.7 3.7 5 3.7 10.1 0 7.3-.1 13.2-.1 15 0 1.5 1 3.2 3.8 2.7C139.3 144.9 155 124.3 155 100c0-30.4-24.6-55-55-55z" fill="#f0f0f5"/>
</svg>
